<?xml version="1.0" encoding="utf-8"?>
<!-- Generator: Adobe Illustrator 15.0.0, SVG Export Plug-In . SVG Version: 6.00 Build 0)  -->
<!DOCTYPE svg PUBLIC "-//W3C//DTD SVG 1.1//EN" "http://www.w3.org/Graphics/SVG/1.1/DTD/svg11.dtd">
<svg version="1.1" id="Layer_1" xmlns="http://www.w3.org/2000/svg" xmlns:xlink="http://www.w3.org/1999/xlink" x="0px" y="0px"
	 width="1000px" height="1000px" viewBox="-180 -260 1000 1000" enable-background="new -180 -260 1000 1000" xml:space="preserve">
<g>
	<title>Layer 1</title>
	<g id="layer1">
		<path id="rect3225" fill="#FFFFFF" stroke="#000000" stroke-width="1.9477" stroke-linecap="round" stroke-linejoin="round" d="
			M65.689,36.379c-6.363,0-11.394,5.16-11.394,11.523v303.105c0,6.362,5.031,11.395,11.394,11.395h504.572
			c6.363,0,11.521-5.032,11.521-11.395V47.902c0-6.363-5.158-11.523-11.521-11.523H351.462c-1.13,1.861-3.224,3.107-5.568,3.107
			h-59.299c-2.338,0-4.308-1.254-5.438-3.107H65.689z"/>
		<path id="rect3318" fill="#FFFFFF" stroke="#000000" stroke-width="1.9477" stroke-linecap="round" stroke-linejoin="round" d="
			M85.802,62.443h464.395c2.982,0,5.4,2.337,5.4,5.219v273.31c0,2.882-2.418,5.219-5.4,5.219H85.802c-2.982,0-5.4-2.337-5.4-5.219
			V67.663C80.402,64.781,82.82,62.443,85.802,62.443z"/>
		<path id="path3206" fill="#FFFFFF" stroke="#000000" stroke-width="1.9477" d="M-131.872,129.551
			c-22.748,124.568-37.583,257.82-48.744,316.296c-17.506,91.722,135.776,168.824,193.894,62.826
			c44.121-80.472,94.239-183.063,94.239-183.063L-131.872,129.551z"/>
		<path id="path3258" fill="#FFFFFF" stroke="#000000" stroke-width="1.9477" d="M541.721-22.087h137.347l-10.764-17.698
			C661.248-51.388,642.9-60,610.396-60c-32.508,0-50.855,8.612-57.912,20.215L541.721-22.087z"/>
		<path id="path3234" fill="#FFFFFF" stroke="#000000" stroke-width="1.9477" d="M-48.085-22.087H89.264L78.5-39.785
			C71.443-51.388,53.097-60,20.589-60c-32.508,0-50.853,8.612-57.91,20.215L-48.085-22.087z"/>
		<path id="path3229" fill="#FFFFFF" stroke="#000000" stroke-width="1.9477" d="M106.975,60.236
			c-7.041-45.494-10.29-68.242-13.54-85.031C90.186-41.584,61.48-50.25,20.589-50.25c-40.891,0-69.596,8.666-72.846,25.455
			c-3.25,16.789-6.499,39.537-13.54,85.031"/>
		<path id="path2416" fill="#FFFFFF" stroke="#000000" stroke-width="1.9477" stroke-linecap="round" stroke-linejoin="round" d="
			M177.925,168.546c0,86.744-70.321,157.063-157.064,157.063c-86.745,0-157.065-70.319-157.065-157.063
			c0-86.744,70.32-157.064,157.065-157.064C107.604,11.481,177.925,81.802,177.925,168.546z"/>
		<path id="path3260" fill="#FFFFFF" stroke="#000000" stroke-width="1.9477" d="M696.779,60.236
			c-7.041-45.494-10.29-68.242-13.54-85.031c-3.249-16.79-31.954-25.455-72.846-25.455c-40.891,0-69.596,8.666-72.845,25.455
			c-3.25,16.789-6.499,39.537-13.54,85.031"/>
		<path id="path3208" fill="#FFFFFF" stroke="#000000" stroke-width="1.9477" stroke-linecap="round" stroke-linejoin="round" d="
			M271.081,321.277c0,55.039-44.617,99.654-99.655,99.654s-99.655-44.615-99.655-99.654c0-55.037,44.617-99.654,99.655-99.654
			S271.081,266.24,271.081,321.277z"/>
		
			<path id="path3212" fill="#FFFFFF" fill-opacity="0.5185" stroke="#000000" stroke-width="1.9477" stroke-linecap="round" stroke-linejoin="round" d="
			M248.333,321.277c0,42.476-34.433,76.908-76.908,76.908s-76.908-34.433-76.908-76.908c0-42.475,34.433-76.906,76.908-76.906
			S248.333,278.803,248.333,321.277z"/>
		
			<path id="path3210" fill="#FFFFFF" fill-opacity="0.5185" stroke="#000000" stroke-width="1.9477" stroke-linecap="round" stroke-linejoin="round" d="
			M238.584,321.277c0,37.091-30.068,67.16-67.159,67.16s-67.159-30.069-67.159-67.16c0-37.09,30.068-67.158,67.159-67.158
			S238.584,284.188,238.584,321.277z"/>
		<path id="path3223" fill="#FFFFFF" stroke="#000000" stroke-width="1.9477" d="M767.778,129.551
			c22.746,124.568,37.582,259.986,48.743,316.296c18.155,91.596-135.776,168.824-193.893,62.826
			c-44.121-80.472-94.24-183.063-94.24-183.063L767.778,129.551z"/>
		<path id="path3221" fill="#FFFFFF" stroke="#000000" stroke-width="1.9477" stroke-linecap="round" stroke-linejoin="round" d="
			M457.981,168.546c0,86.744,70.32,157.063,157.064,157.063c86.743,0,157.065-70.319,157.065-157.063
			c0-86.744-70.322-157.064-157.065-157.064C528.302,11.481,457.981,81.802,457.981,168.546z"/>
		<path id="path3219" fill="#FFFFFF" stroke="#000000" stroke-width="1.9477" stroke-linecap="round" stroke-linejoin="round" d="
			M582.806,52.47c-6.363,0-11.522,5.16-11.522,11.523v60.725h-60.855c-6.362,0-11.393,5.159-11.393,11.523v64.608
			c0,6.364,5.03,11.524,11.393,11.524h60.855v60.724c0,6.363,5.159,11.522,11.522,11.522h64.608c6.364,0,11.396-5.159,11.396-11.522
			v-60.724h60.854c6.364,0,11.395-5.16,11.395-11.524v-64.608c0-6.364-5.03-11.523-11.395-11.523H658.81V63.994
			c0-6.363-5.031-11.523-11.396-11.523H582.806z"/>
		<path id="rect3236" fill="#FFFFFF" stroke="#000000" stroke-width="1.9477" stroke-linecap="round" stroke-linejoin="round" d="
			M204.81,170.731h42.092c1.688,0,3.056,1.369,3.056,3.056v21.511c0,1.688-1.367,3.056-3.056,3.056H204.81
			c-1.687,0-3.055-1.368-3.055-3.056v-21.511C201.755,172.1,203.123,170.731,204.81,170.731z"/>
		<path id="rect3238" fill="#FFFFFF" stroke="#000000" stroke-width="1.9477" stroke-linecap="round" stroke-linejoin="round" d="
			M424.354,184.542l-35.204,13.812c-3.352,1.315-6.5-2.898-6.5-6.499V177.23c0-3.6,3.148-7.813,6.5-6.499L424.354,184.542z"/>
		<path id="path3242" fill="#FFFFFF" stroke="#000000" stroke-width="1.9477" stroke-linecap="round" stroke-linejoin="round" d="
			M354.867,257.91c0,18.156-14.72,32.875-32.877,32.875c-18.157,0-32.875-14.719-32.875-32.875
			c0-18.156,14.718-32.876,32.875-32.876C340.147,225.034,354.867,239.754,354.867,257.91z"/>
		<path id="path3244" fill="#FFFFFF" stroke="#000000" stroke-width="1.9477" stroke-linecap="round" stroke-linejoin="round" d="
			M649.166,95.429c0,18.844-15.275,34.122-34.12,34.122c-18.844,0-34.121-15.277-34.121-34.122s15.277-34.121,34.121-34.121
			C633.891,61.309,649.166,76.585,649.166,95.429z"/>
		<path id="path3246" fill="#FFFFFF" stroke="#000000" stroke-width="1.9477" stroke-linecap="round" stroke-linejoin="round" d="
			M649.166,242.204c0,18.845-15.275,34.12-34.12,34.12c-18.844,0-34.121-15.275-34.121-34.12c0-18.844,15.277-34.122,34.121-34.122
			C633.891,208.083,649.166,223.36,649.166,242.204z"/>
		<path id="path3248" fill="#FFFFFF" stroke="#000000" stroke-width="1.9477" stroke-linecap="round" stroke-linejoin="round" d="
			M654.311,168.816c0-18.844,15.277-34.12,34.123-34.12c18.843,0,34.12,15.276,34.12,34.12c0,18.846-15.277,34.122-34.12,34.122
			C669.588,202.938,654.311,187.662,654.311,168.816z"/>
		<path id="path3250" fill="#FFFFFF" stroke="#000000" stroke-width="1.9477" stroke-linecap="round" stroke-linejoin="round" d="
			M507.537,168.816c0-18.844,15.277-34.12,34.12-34.12c18.846,0,34.123,15.276,34.123,34.12c0,18.846-15.277,34.122-34.123,34.122
			C522.814,202.938,507.537,187.662,507.537,168.816z"/>
		<path id="rect3214" fill="#FFFFFF" stroke="#000000" stroke-width="1.9477" stroke-linecap="round" stroke-linejoin="round" d="
			M-12.121,50.472c-6.363,0-11.523,5.161-11.523,11.523v60.726h-60.854c-6.363,0-11.394,5.16-11.394,11.523v64.609
			c0,6.363,5.031,11.522,11.394,11.522h60.854v60.725c0,6.363,5.16,11.523,11.523,11.523h64.609c6.363,0,11.394-5.16,11.394-11.523
			v-60.725h60.854c6.363,0,11.394-5.159,11.394-11.522v-64.609c0-6.363-5.031-11.523-11.394-11.523H63.882V61.995
			c0-6.363-5.031-11.523-11.394-11.523H-12.121z"/>
		<path id="path3289" fill="#FFFFFF" stroke="#000000" stroke-width="1.9477" stroke-linecap="round" stroke-linejoin="round" d="
			M561.38,321.277c0,55.039-44.618,99.654-99.655,99.654c-55.039,0-99.654-44.615-99.654-99.654
			c0-55.037,44.615-99.654,99.654-99.654C516.762,221.623,561.38,266.24,561.38,321.277z"/>
		
			<path id="path3291" fill="#FFFFFF" fill-opacity="0.5185" stroke="#000000" stroke-width="1.9477" stroke-linecap="round" stroke-linejoin="round" d="
			M538.632,321.277c0,42.476-34.433,76.908-76.907,76.908c-42.476,0-76.908-34.433-76.908-76.908
			c0-42.475,34.433-76.906,76.908-76.906C504.199,244.371,538.632,278.803,538.632,321.277z"/>
		
			<path id="path3293" fill="#FFFFFF" fill-opacity="0.5185" stroke="#000000" stroke-width="1.9477" stroke-linecap="round" stroke-linejoin="round" d="
			M528.884,321.277c0,37.091-30.067,67.16-67.159,67.16c-37.091,0-67.158-30.069-67.158-67.16c0-37.09,30.067-67.158,67.158-67.158
			C498.816,254.119,528.884,284.188,528.884,321.277z"/>
		<g id="g3289">
			<path id="path3273" fill="#FFFFFF" stroke="#000000" stroke-width="1.9477" stroke-linecap="round" stroke-linejoin="round" d="
				M20.119,62.698L4.443,77.587h31.352L20.119,62.698z"/>
			<path id="path3295" fill="#FFFFFF" stroke="#000000" stroke-width="1.9477" stroke-linecap="round" stroke-linejoin="round" d="
				M20.119,270.397L4.443,255.509h31.352L20.119,270.397z"/>
			<path id="path3303" fill="#FFFFFF" stroke="#000000" stroke-width="1.9477" stroke-linecap="round" stroke-linejoin="round" d="
				M123.968,166.548l-14.889-15.675v31.351L123.968,166.548z"/>
			<path id="path3305" fill="#FFFFFF" stroke="#000000" stroke-width="1.9477" stroke-linecap="round" stroke-linejoin="round" d="
				M-83.731,166.548l14.889-15.675v31.351L-83.731,166.548z"/>
		</g>
		
			<rect id="rect3307" x="522.128" y="149.285" fill="#FFFFFF" stroke="#000000" stroke-width="1.9477" width="39.062" height="39.063"/>
		<path id="path3309" fill="#FFFFFF" stroke="#000000" stroke-width="1.9477" d="M636.793,109.253H593.3l21.746-37.604
			L636.793,109.253z"/>
		<path id="path3311" fill="#FFFFFF" stroke="#000000" stroke-width="1.9477" stroke-linecap="round" stroke-linejoin="round" d="
			M665.034,168.817c0-12.922,10.477-23.397,23.399-23.397c12.922,0,23.396,10.475,23.396,23.397s-10.475,23.398-23.396,23.398
			C675.511,192.215,665.034,181.739,665.034,168.817z"/>
		<path id="path3313" fill="#FFFFFF" fill-opacity="0.75" stroke="#000000" stroke-width="1.9477" d="M597.733,225.235
			l35.232,35.234 M632.966,225.235l-35.232,35.234"/>
		<g id="g5204">
			<path id="path3322" fill="#FFFFFF" stroke="#000000" stroke-width="1.9477" stroke-linecap="round" stroke-linejoin="round" d="
				M58.732,143.3c-1.388,0.119-2.661,0.826-3.495,1.942l-14.502,18.386c-1.35,1.755-1.35,4.2,0,5.955l14.502,18.516
				c0.92,1.219,2.357,1.938,3.884,1.942l33.664,0.129c1.308,0.01,2.565-0.505,3.489-1.431c0.925-0.924,1.439-2.182,1.43-3.489
				v-36.383c0.02-2.675-2.115-4.869-4.79-4.92L59.251,143.3C59.079,143.291,58.906,143.291,58.732,143.3z"/>
			<path id="path3324" fill="#FFFFFF" stroke="#000000" stroke-width="1.9477" stroke-linecap="round" stroke-linejoin="round" d="
				M-18.496,142.933c1.39,0.119,2.661,0.825,3.496,1.942l14.502,18.386c1.35,1.755,1.35,4.2,0,5.955L-15,187.731
				c-0.92,1.219-2.358,1.937-3.884,1.942l-33.664,0.13c-1.308,0.009-2.565-0.506-3.49-1.431c-0.925-0.925-1.44-2.182-1.431-3.489
				V148.5c-0.02-2.675,2.116-4.869,4.792-4.92l33.664-0.646C-18.841,142.923-18.668,142.923-18.496,142.933z"/>
			<path id="path3332" fill="#FFFFFF" stroke="#000000" stroke-width="1.9477" stroke-linecap="round" stroke-linejoin="round" d="
				M43.367,205.162c-0.119-1.389-0.827-2.661-1.942-3.496l-18.386-14.501c-1.756-1.351-4.201-1.351-5.956,0l-18.516,14.501
				c-1.218,0.92-1.937,2.357-1.942,3.885l-0.129,33.664c-0.009,1.308,0.506,2.564,1.431,3.489c0.925,0.925,2.182,1.44,3.49,1.431
				h36.382c2.675,0.02,4.869-2.116,4.92-4.791l0.648-33.664C43.375,205.508,43.375,205.335,43.367,205.162z"/>
			<path id="path3334" fill="#FFFFFF" stroke="#000000" stroke-width="1.9477" stroke-linecap="round" stroke-linejoin="round" d="
				M43.735,127.934c-0.119,1.388-0.826,2.661-1.942,3.496l-18.386,14.501c-1.757,1.351-4.201,1.351-5.957,0L-1.064,131.43
				c-1.218-0.92-1.937-2.357-1.942-3.884l-0.129-33.664c-0.01-1.309,0.506-2.565,1.43-3.49c0.925-0.924,2.182-1.44,3.49-1.43h36.383
				c2.674-0.02,4.868,2.116,4.919,4.79l0.647,33.664C43.745,127.589,43.745,127.761,43.735,127.934z"/>
		</g>
		<path id="text3336" fill="#FFFFFF" stroke="#000000" stroke-width="1.9477" d="M11.17-31.669h4.301v28.168H30.95v3.62H11.17
			V-31.669"/>
		<path id="text3340" fill="#FFFFFF" stroke="#000000" stroke-width="1.9477" d="M618.388-14.785
			c0.922,0.312,1.816,0.979,2.684,2.001c0.879,1.021,1.759,2.427,2.64,4.216l4.363,8.687h-4.62l-4.064-8.155
			c-1.052-2.128-2.073-3.541-3.066-4.236c-0.979-0.695-2.322-1.043-4.024-1.043h-4.685V0.119h-4.301v-31.788h9.708
			c3.635,0,6.346,0.76,8.135,2.278c1.788,1.519,2.683,3.811,2.683,6.877c0,2.001-0.469,3.662-1.406,4.982
			C621.511-16.211,620.162-15.296,618.388-14.785 M607.614-28.135v11.285h5.407c2.073,0,3.635-0.475,4.685-1.426
			c1.065-0.965,1.598-2.377,1.598-4.237s-0.532-3.257-1.598-4.195c-1.05-0.951-2.611-1.427-4.685-1.427H607.614"/>
		<path id="text2434" fill="#FFFFFF" stroke="#000000" stroke-width="1.9477" d="M202.431,147.046v1.819
			c-0.708-0.338-1.376-0.59-2.004-0.757c-0.628-0.167-1.235-0.25-1.82-0.25c-1.016,0-1.8,0.197-2.355,0.591
			c-0.548,0.395-0.823,0.955-0.823,1.681c0,0.61,0.182,1.072,0.545,1.386c0.37,0.308,1.066,0.557,2.088,0.748l1.127,0.231
			c1.391,0.266,2.417,0.733,3.075,1.405c0.666,0.665,0.998,1.558,0.998,2.678c0,1.336-0.449,2.349-1.348,3.039
			c-0.893,0.69-2.205,1.035-3.935,1.035c-0.652,0-1.349-0.073-2.087-0.222c-0.732-0.147-1.493-0.366-2.281-0.656v-1.921
			c0.757,0.425,1.5,0.746,2.226,0.96c0.727,0.216,1.441,0.323,2.143,0.323c1.065,0,1.887-0.209,2.466-0.628
			c0.58-0.418,0.869-1.016,0.869-1.792c0-0.677-0.209-1.207-0.628-1.589c-0.413-0.381-1.094-0.667-2.042-0.858l-1.136-0.222
			c-1.392-0.277-2.398-0.711-3.021-1.302c-0.622-0.592-0.933-1.414-0.933-2.467c0-1.219,0.428-2.18,1.284-2.881
			c0.861-0.702,2.047-1.053,3.556-1.053c0.647,0,1.306,0.058,1.977,0.176C201.042,146.638,201.729,146.812,202.431,147.046
			 M206.172,146.594h8.719v1.57h-6.853v4.083h6.566v1.57h-6.566v4.997h7.02v1.571h-8.886V146.594 M218.143,146.594h1.865v12.22
			h6.715v1.571h-8.58V146.594 M228.672,146.594h8.719v1.57h-6.854v4.083h6.568v1.57h-6.568v4.997h7.021v1.571h-8.886V146.594
			 M250.969,147.656v1.967c-0.628-0.584-1.299-1.022-2.013-1.311c-0.709-0.29-1.463-0.435-2.264-0.435
			c-1.576,0-2.784,0.484-3.621,1.451c-0.838,0.96-1.256,2.353-1.256,4.175c0,1.816,0.418,3.208,1.256,4.175
			c0.837,0.96,2.045,1.441,3.621,1.441c0.801,0,1.555-0.145,2.264-0.434c0.714-0.29,1.385-0.728,2.013-1.312v1.95
			c-0.652,0.443-1.346,0.775-2.078,0.998c-0.728,0.222-1.497,0.332-2.309,0.332c-2.087,0-3.732-0.637-4.933-1.912
			c-1.2-1.281-1.801-3.027-1.801-5.237c0-2.217,0.601-3.963,1.801-5.237c1.201-1.281,2.845-1.921,4.933-1.921
			c0.825,0,1.601,0.111,2.327,0.333C249.641,146.893,250.328,147.219,250.969,147.656 M251.957,146.594h11.667v1.57h-4.896v12.22
			h-1.875v-12.22h-4.896V146.594"/>
		<path id="text2438" fill="#FFFFFF" stroke="#000000" stroke-width="1.9477" d="M380.102,147.046v1.819
			c-0.708-0.338-1.378-0.59-2.005-0.757c-0.628-0.167-1.234-0.25-1.818-0.25c-1.018,0-1.802,0.197-2.356,0.591
			c-0.548,0.395-0.822,0.955-0.822,1.681c0,0.61,0.183,1.072,0.546,1.386c0.369,0.308,1.065,0.557,2.087,0.748l1.126,0.231
			c1.392,0.266,2.417,0.733,3.077,1.405c0.664,0.665,0.997,1.558,0.997,2.678c0,1.336-0.449,2.349-1.349,3.039
			c-0.893,0.69-2.205,1.035-3.936,1.035c-0.652,0-1.349-0.073-2.087-0.222c-0.731-0.147-1.492-0.366-2.282-0.656v-1.921
			c0.759,0.425,1.501,0.746,2.228,0.96c0.727,0.216,1.439,0.323,2.142,0.323c1.065,0,1.889-0.209,2.467-0.628
			c0.578-0.418,0.867-1.016,0.867-1.792c0-0.677-0.209-1.207-0.627-1.589c-0.413-0.381-1.092-0.667-2.041-0.858l-1.136-0.222
			c-1.393-0.277-2.398-0.711-3.021-1.302c-0.622-0.592-0.934-1.414-0.934-2.467c0-1.219,0.428-2.18,1.283-2.881
			c0.862-0.702,2.049-1.053,3.558-1.053c0.646,0,1.305,0.058,1.976,0.176C378.713,146.638,379.399,146.812,380.102,147.046
			 M381.929,146.594h11.667v1.57H388.7v12.22h-1.875v-12.22h-4.896V146.594 M398.537,148.432l-2.531,6.862h5.071L398.537,148.432
			 M397.483,146.594h2.115l5.256,13.791h-1.938l-1.257-3.538h-6.216l-1.256,3.538h-1.969L397.483,146.594 M413.398,153.918
			c0.401,0.136,0.789,0.425,1.164,0.868c0.382,0.443,0.765,1.053,1.145,1.829l1.895,3.769h-2.005l-1.763-3.538
			c-0.457-0.923-0.9-1.537-1.332-1.838c-0.424-0.301-1.006-0.453-1.746-0.453h-2.031v5.829h-1.865v-13.791h4.213
			c1.574,0,2.752,0.33,3.528,0.988c0.773,0.659,1.162,1.654,1.162,2.984c0,0.867-0.202,1.588-0.609,2.161
			C414.754,153.299,414.168,153.697,413.398,153.918 M408.725,148.127v4.896h2.348c0.897,0,1.574-0.206,2.031-0.619
			c0.462-0.418,0.692-1.031,0.692-1.837c0-0.808-0.23-1.415-0.692-1.82c-0.457-0.413-1.134-0.619-2.031-0.619H408.725
			 M416.732,146.594h11.667v1.57h-4.896v12.22h-1.876v-12.22h-4.896V146.594"/>
		<g>
			<path fill="#FFFFFF" d="M79.402-119.942c0-5.5-4.5-10-10-10h-97.644c-5.5,0-10,4.5-10,10v31c0,5.5,4.5,10,10,10h97.644
				c5.5,0,10-4.5,10-10V-119.942z"/>
			<path fill="none" stroke="#000000" stroke-width="1.9477" stroke-linecap="round" stroke-linejoin="round" d="M79.402-119.942
				c0-5.5-4.5-10-10-10h-97.644c-5.5,0-10,4.5-10,10v31c0,5.5,4.5,10,10,10h97.644c5.5,0,10-4.5,10-10V-119.942z"/>
		</g>
		<g>
			<path fill="#FFFFFF" d="M79.402-214.942c0-29.943-117.644-28.443-117.644,0c0,20,0,58,0,58c0,5.5,4.5,10,10,10h97.644
				c5.5,0,10-4.5,10-10C79.402-156.942,79.402-194.942,79.402-214.942z"/>
			<path fill="none" stroke="#000000" stroke-width="1.9477" stroke-linecap="round" stroke-linejoin="round" d="M79.402-214.942
				c0-29.943-117.644-28.443-117.644,0c0,20,0,58,0,58c0,5.5,4.5,10,10,10h97.644c5.5,0,10-4.5,10-10
				C79.402-156.942,79.402-194.942,79.402-214.942z"/>
		</g>
		<g>
			<path fill="#FFFFFF" d="M673.867-119.942c0-5.5-4.5-10-10-10h-97.645c-5.5,0-10,4.5-10,10v31c0,5.5,4.5,10,10,10h97.645
				c5.5,0,10-4.5,10-10V-119.942z"/>
			<path fill="none" stroke="#000000" stroke-width="1.9477" stroke-linecap="round" stroke-linejoin="round" d="M673.867-119.942
				c0-5.5-4.5-10-10-10h-97.645c-5.5,0-10,4.5-10,10v31c0,5.5,4.5,10,10,10h97.645c5.5,0,10-4.5,10-10V-119.942z"/>
		</g>
		<g>
			<path fill="#FFFFFF" d="M673.867-214.942c0-29.943-117.645-28.443-117.645,0c0,20,0,58,0,58c0,5.5,4.5,10,10,10h97.645
				c5.5,0,10-4.5,10-10C673.867-156.942,673.867-194.942,673.867-214.942z"/>
			<path fill="none" stroke="#000000" stroke-width="1.9477" stroke-linecap="round" stroke-linejoin="round" d="M673.867-214.942
				c0-29.943-117.645-28.443-117.645,0c0,20,0,58,0,58c0,5.5,4.5,10,10,10h97.645c5.5,0,10-4.5,10-10
				C673.867-156.942,673.867-194.942,673.867-214.942z"/>
		</g>
	</g>
</g>
</svg>
